<svg width="22" height="21" viewBox="0 0 22 21" fill="none" xmlns="http://www.w3.org/2000/svg">
<path d="M15.5371 1.29213C15.5084 1.27803 15.4765 1.27135 15.4444 1.27274C15.4123 1.27413 15.3811 1.28354 15.3538 1.30006C15.3265 1.31658 15.3041 1.33967 15.2885 1.36711C15.273 1.39454 15.265 1.42541 15.2652 1.45674V2.92457C15.2652 3.05032 15.3332 3.16692 15.441 3.23551C15.9695 3.56002 16.4586 3.942 16.8988 4.3741C17.6652 5.12402 18.2676 5.99511 18.6871 6.96451C19.121 7.96805 19.3434 9.04652 19.341 10.1357C19.341 11.2354 19.1207 12.3031 18.6871 13.3068C18.268 14.2748 17.6608 15.1545 16.8988 15.8972C16.1394 16.6424 15.2382 17.2357 14.2457 17.644C13.2191 18.0692 12.1246 18.2841 10.9996 18.2841C9.8746 18.2841 8.78007 18.0692 7.7535 17.644C6.76102 17.2357 5.85978 16.6424 5.10038 15.8972C4.33843 15.1545 3.73115 14.2748 3.3121 13.3068C2.87823 12.3033 2.65584 11.2248 2.65819 10.1357C2.65819 9.03593 2.8785 7.96821 3.3121 6.96451C3.73163 5.99511 4.33397 5.12402 5.10038 4.3741C5.54569 3.9397 6.03319 3.56017 6.55819 3.23551C6.66835 3.1692 6.73397 3.05032 6.73397 2.92457V1.45446C6.73397 1.31728 6.58632 1.2304 6.4621 1.28984C3.18319 2.89942 0.921473 6.19402 0.874598 10.0122C0.808973 15.4719 5.38632 20.008 10.9808 20.0195C16.5824 20.0309 21.1246 15.6 21.1246 10.1334C21.1246 6.2649 18.8512 2.91542 15.5371 1.29213ZM10.2496 11.24H11.7496C11.8527 11.24 11.9371 11.1576 11.9371 11.057V0.44847C11.9371 0.347872 11.8527 0.265564 11.7496 0.265564H10.2496C10.1465 0.265564 10.0621 0.347872 10.0621 0.44847V11.057C10.0621 11.1576 10.1465 11.24 10.2496 11.24Z" fill="black"/>
</svg>
