<svg width="0" height="0" class="hidden">
  <symbol xmlns="http://www.w3.org/2000/svg" viewBox="0 0 22 22" id="comments">
    <path d="M9.875 11a1.125 1.125 0 102.25 0 1.125 1.125 0 00-2.25 0zm4.688 0a1.125 1.125 0 102.25 0 1.125 1.125 0 00-2.25 0zm-9.375 0a1.125 1.125 0 102.25 0 1.125 1.125 0 00-2.25 0zm15.497-4.069A10.503 10.503 0 0011 .5h-.047A10.475 10.475 0 00.5 11.05a10.533 10.533 0 001.125 4.684v3.563a1.078 1.078 0 001.078 1.078h3.565a10.533 10.533 0 004.685 1.125h.05c1.403 0 2.765-.272 4.047-.804a10.417 10.417 0 003.347-2.231 10.475 10.475 0 003.103-7.418 10.46 10.46 0 00-.815-4.116zm-3.542 10.266A8.673 8.673 0 0111 19.719h-.04a8.75 8.75 0 01-4.057-1.02l-.197-.105h-3.3v-3.3l-.105-.197a8.75 8.75 0 01-1.02-4.057 8.665 8.665 0 012.522-6.183 8.653 8.653 0 016.16-2.576h.04c1.171 0 2.308.228 3.38.678a8.664 8.664 0 012.788 1.875 8.683 8.683 0 012.552 6.206 8.685 8.685 0 01-2.58 6.157z" ></path>
  </symbol>
  <symbol xmlns="http://www.w3.org/2000/svg" viewBox="0 0 20 20" id="likes">
    <path d="M18.763 10.51c.394-.52.612-1.158.612-1.822 0-1.052-.588-2.048-1.535-2.604a1.586 1.586 0 00-.804-.218h-5.62l.14-2.88a2.509 2.509 0 00-.691-1.861A2.499 2.499 0 009.039.342c-1.219 0-2.297.82-2.62 1.995L4.405 9.626h-3.03a.75.75 0 00-.75.75v8.531c0 .415.335.75.75.75h14.093c.216 0 .427-.042.621-.127a3.014 3.014 0 001.709-3.642 3.016 3.016 0 00.485-2.688c.394-.52.611-1.158.611-1.821a3.2 3.2 0 00-.13-.87zm-16.45 7.46v-6.657H4.21v6.657H2.312zm14.915-8.274l-.513.445.326.596a1.338 1.338 0 01-.298 1.648l-.513.445.325.595a1.338 1.338 0 01-.298 1.648l-.512.445.325.595a1.332 1.332 0 01-.626 1.854H5.711v-6.729L8.043 2.79a1.034 1.034 0 01.989-.757.833.833 0 01.837.872l-.225 4.65h7.368c.418.255.675.687.675 1.134 0 .387-.168.753-.459 1.008z" ></path>
  </symbol>
  <symbol xmlns="http://www.w3.org/2000/svg" viewBox="0 0 20 20" id="save">
    <path d="M18.937 4.874l-3.811-3.81A1.494 1.494 0 0014.5.687V.625H1.375a.75.75 0 00-.75.75v17.25c0 .415.335.75.75.75h17.25a.75.75 0 00.75-.75V5.934c0-.399-.157-.779-.438-1.06zM7 2.313h6V4.75H7V2.312zm10.688 15.374H2.313V2.313H5.5V5.5c0 .415.335.75.75.75h7.5a.75.75 0 00.75-.75V2.823l3.188 3.188v11.677zM10 8.36a3.376 3.376 0 10.002 6.752A3.376 3.376 0 0010 8.36zm0 5.25a1.875 1.875 0 11-.001-3.749A1.875 1.875 0 0110 13.61z" ></path>
  </symbol>
  <symbol xmlns="http://www.w3.org/2000/svg" viewBox="0 0 18 20" id="share">
    <path d="M14.625 13.563a2.8 2.8 0 00-1.767.625l-4.856-3.513a3.766 3.766 0 000-1.35l4.856-3.513a2.8 2.8 0 001.767.625 2.815 2.815 0 002.813-2.812A2.815 2.815 0 0014.624.812a2.815 2.815 0 00-2.702 3.593L7.31 7.745A3.749 3.749 0 00.562 10a3.749 3.749 0 006.748 2.255l4.613 3.34a2.815 2.815 0 002.702 3.593 2.815 2.815 0 002.813-2.813 2.815 2.815 0 00-2.813-2.813zm0-11.157a1.22 1.22 0 11-.001 2.439 1.22 1.22 0 01.001-2.439zM4.312 12.062A2.066 2.066 0 012.25 10c0-1.137.926-2.063 2.063-2.063 1.136 0 2.062.926 2.062 2.063a2.066 2.066 0 01-2.063 2.063zm10.313 5.532a1.22 1.22 0 11.001-2.439 1.22 1.22 0 01-.001 2.439z" ></path>
  </symbol>
  <symbol xmlns="http://www.w3.org/2000/svg" viewBox="0 0 12 14" id="fire">
    <path d="M11.0328 6.33147C10.7295 5.64875 10.2885 5.03597 9.7375 4.53147L9.28281 4.11428C9.26737 4.10051 9.24879 4.09073 9.22869 4.08581C9.2086 4.08089 9.1876 4.08099 9.16754 4.08608C9.14749 4.09117 9.12899 4.1011 9.11367 4.11501C9.09835 4.12892 9.08668 4.14638 9.07969 4.16585L8.87656 4.74866C8.75 5.11428 8.51719 5.48772 8.1875 5.85491C8.16563 5.87835 8.14063 5.8846 8.12344 5.88616C8.10625 5.88772 8.07969 5.8846 8.05625 5.86272C8.03437 5.84397 8.02344 5.81585 8.025 5.78772C8.08281 4.8471 7.80156 3.78616 7.18594 2.63147C6.67656 1.6721 5.96875 0.92366 5.08437 0.401785L4.43906 0.0220976C4.35469 -0.0279024 4.24688 0.0377225 4.25156 0.13616L4.28594 0.88616C4.30937 1.39866 4.25 1.85179 4.10938 2.22835C3.9375 2.68929 3.69062 3.11741 3.375 3.50179C3.15535 3.76891 2.90639 4.01053 2.63281 4.2221C1.97391 4.72861 1.43815 5.37762 1.06562 6.12054C0.694022 6.86993 0.500453 7.695 0.5 8.53147C0.5 9.26897 0.645312 9.98304 0.932812 10.6565C1.21042 11.3049 1.61103 11.8933 2.1125 12.3893C2.61875 12.8893 3.20625 13.283 3.86094 13.5565C4.53906 13.8408 5.25781 13.9846 6 13.9846C6.74219 13.9846 7.46094 13.8408 8.13906 13.558C8.79214 13.2862 9.38601 12.8898 9.8875 12.3908C10.3938 11.8908 10.7906 11.3065 11.0672 10.658C11.3543 9.98644 11.5015 9.26341 11.5 8.53303C11.5 7.77053 11.3438 7.02991 11.0328 6.33147ZM9.14062 11.633C8.30156 12.4643 7.1875 12.9205 6 12.9205C4.8125 12.9205 3.69844 12.4643 2.85938 11.633C2.02344 10.8033 1.5625 9.70335 1.5625 8.53303C1.5625 7.85335 1.71563 7.20179 2.01719 6.59554C2.31094 6.00335 2.74844 5.47366 3.27969 5.06585C3.6185 4.80678 3.9258 4.50891 4.19531 4.17835C4.58594 3.70179 4.89219 3.17053 5.10469 2.60022C5.19185 2.36497 5.25519 2.12156 5.29375 1.87366C5.67031 2.22054 5.98594 2.63928 6.25 3.12991C6.77187 4.10803 7.0125 4.97835 6.96562 5.71897C6.95443 5.8934 6.98291 6.06811 7.04895 6.22994C7.11498 6.39178 7.21684 6.53654 7.34688 6.65335C7.45956 6.75514 7.59135 6.83352 7.73458 6.88395C7.87782 6.93438 8.02965 6.95584 8.18125 6.9471C8.48906 6.93147 8.77187 6.79554 8.97812 6.56585C9.18594 6.33304 9.36563 6.09554 9.51562 5.85335C9.73438 6.13304 9.91719 6.43772 10.0625 6.76585C10.3109 7.32522 10.4375 7.92053 10.4375 8.53303C10.4375 9.70335 9.97656 10.8049 9.14062 11.633Z"></path>
  </symbol>
  <symbol xmlns="http://www.w3.org/2000/svg" viewBox="0 0 22 21" id="exit">
    <path d="M15.5371 1.29213C15.5084 1.27803 15.4765 1.27135 15.4444 1.27274C15.4123 1.27413 15.3811 1.28354 15.3538 1.30006C15.3265 1.31658 15.3041 1.33967 15.2885 1.36711C15.273 1.39454 15.265 1.42541 15.2652 1.45674V2.92457C15.2652 3.05032 15.3332 3.16692 15.441 3.23551C15.9695 3.56002 16.4586 3.942 16.8988 4.3741C17.6652 5.12402 18.2676 5.99511 18.6871 6.96451C19.121 7.96805 19.3434 9.04652 19.341 10.1357C19.341 11.2354 19.1207 12.3031 18.6871 13.3068C18.268 14.2748 17.6608 15.1545 16.8988 15.8972C16.1394 16.6424 15.2382 17.2357 14.2457 17.644C13.2191 18.0692 12.1246 18.2841 10.9996 18.2841C9.8746 18.2841 8.78007 18.0692 7.7535 17.644C6.76102 17.2357 5.85978 16.6424 5.10038 15.8972C4.33843 15.1545 3.73115 14.2748 3.3121 13.3068C2.87823 12.3033 2.65584 11.2248 2.65819 10.1357C2.65819 9.03593 2.8785 7.96821 3.3121 6.96451C3.73163 5.99511 4.33397 5.12402 5.10038 4.3741C5.54569 3.9397 6.03319 3.56017 6.55819 3.23551C6.66835 3.1692 6.73397 3.05032 6.73397 2.92457V1.45446C6.73397 1.31728 6.58632 1.2304 6.4621 1.28984C3.18319 2.89942 0.921473 6.19402 0.874598 10.0122C0.808973 15.4719 5.38632 20.008 10.9808 20.0195C16.5824 20.0309 21.1246 15.6 21.1246 10.1334C21.1246 6.2649 18.8512 2.91542 15.5371 1.29213ZM10.2496 11.24H11.7496C11.8527 11.24 11.9371 11.1576 11.9371 11.057V0.44847C11.9371 0.347872 11.8527 0.265564 11.7496 0.265564H10.2496C10.1465 0.265564 10.0621 0.347872 10.0621 0.44847V11.057C10.0621 11.1576 10.1465 11.24 10.2496 11.24Z"></path>
  </symbol>
  <symbol xmlns="http://www.w3.org/2000/svg" viewBox="0 0 48 13" id="Pikadu">
    <path d="M0.992188 0.726562H5.375C6.5 0.726562 7.41406 1.07552 8.11719 1.77344C8.82031 2.46615 9.17188 3.375 9.17188 4.5C9.17188 5.61979 8.8099 6.52865 8.08594 7.22656C7.36719 7.92448 6.4349 8.27344 5.28906 8.27344H3.00781V12H0.992188V0.726562ZM3.00781 2.375V6.64844H4.83594C5.5599 6.64844 6.1224 6.46094 6.52344 6.08594C6.92448 5.71094 7.125 5.18229 7.125 4.5C7.125 3.82292 6.92448 3.29948 6.52344 2.92969C6.1276 2.5599 5.56771 2.375 4.84375 2.375H3.00781Z"></path>
    <path d="M10.5 12V3.71875H12.4453V12H10.5ZM12.2344 2.32812C12.026 2.53125 11.7708 2.63281 11.4688 2.63281C11.1667 2.63281 10.9115 2.53125 10.7031 2.32812C10.4948 2.11979 10.3906 1.86979 10.3906 1.57812C10.3906 1.28125 10.4948 1.03125 10.7031 0.828125C10.9115 0.619792 11.1667 0.515625 11.4688 0.515625C11.7708 0.515625 12.026 0.619792 12.2344 0.828125C12.4479 1.03125 12.5547 1.28125 12.5547 1.57812C12.5547 1.86979 12.4479 2.11979 12.2344 2.32812Z"></path>
    <path d="M16.1016 7.17188L19.2188 3.71875H21.4609L18.1484 7.28125L21.6016 12H19.3516L16.7344 8.46094L16.0781 9.125V12H14.1328V0.726562H16.0781V7.17188H16.1016Z"></path>
    <path d="M25.3672 10.6641C25.9245 10.6641 26.3932 10.5 26.7734 10.1719C27.1589 9.83854 27.3516 9.42448 27.3516 8.92969V8.29688L25.4375 8.41406C24.9688 8.44531 24.6042 8.5625 24.3438 8.76562C24.0885 8.96354 23.9609 9.22656 23.9609 9.55469C23.9609 9.89323 24.0885 10.1641 24.3438 10.3672C24.6042 10.5651 24.9453 10.6641 25.3672 10.6641ZM24.7812 12.1328C23.974 12.1328 23.3099 11.901 22.7891 11.4375C22.2734 10.974 22.0156 10.3724 22.0156 9.63281C22.0156 8.89844 22.2865 8.31771 22.8281 7.89062C23.375 7.46354 24.1536 7.21875 25.1641 7.15625L27.3516 7.03125V6.4375C27.3516 6.00521 27.2135 5.66927 26.9375 5.42969C26.6667 5.1901 26.2891 5.07031 25.8047 5.07031C25.3516 5.07031 24.9818 5.17188 24.6953 5.375C24.4089 5.57812 24.2344 5.85417 24.1719 6.20312H22.3672C22.4089 5.41667 22.7448 4.77865 23.375 4.28906C24.0104 3.79427 24.8464 3.54688 25.8828 3.54688C26.9089 3.54688 27.7292 3.79688 28.3438 4.29688C28.9635 4.79688 29.2734 5.46354 29.2734 6.29688V12H27.3984V10.6797H27.3594C27.125 11.1224 26.7708 11.4766 26.2969 11.7422C25.8229 12.0026 25.3177 12.1328 24.7812 12.1328Z"></path>
    <path d="M33.9375 12.1328C32.8906 12.1328 32.0547 11.7474 31.4297 10.9766C30.8099 10.2057 30.5 9.16406 30.5 7.85156C30.5 6.54427 30.8099 5.50521 31.4297 4.73438C32.0547 3.96354 32.8906 3.57812 33.9375 3.57812C34.5208 3.57812 35.0365 3.71615 35.4844 3.99219C35.9375 4.26823 36.276 4.64062 36.5 5.10938H36.5469V0.726562H38.4922V12H36.5859V10.5859H36.5547C36.3255 11.0599 35.9792 11.4375 35.5156 11.7188C35.0573 11.9948 34.5312 12.1328 33.9375 12.1328ZM34.5234 5.17969C33.8984 5.17969 33.4036 5.42188 33.0391 5.90625C32.6745 6.38542 32.4922 7.03646 32.4922 7.85938C32.4922 8.6875 32.6719 9.34115 33.0312 9.82031C33.3958 10.2995 33.8932 10.5391 34.5234 10.5391C35.138 10.5391 35.6302 10.2969 36 9.8125C36.3698 9.32812 36.5547 8.67708 36.5547 7.85938C36.5547 7.04688 36.3698 6.39844 36 5.91406C35.6302 5.42448 35.138 5.17969 34.5234 5.17969Z"></path>
    <path d="M47.4688 3.71875V12H45.5938V10.5625H45.5547C45.0964 11.6198 44.2526 12.1484 43.0234 12.1484C42.1224 12.1484 41.4062 11.875 40.875 11.3281C40.349 10.776 40.0859 10.0234 40.0859 9.07031V3.71875H42.0312V8.67969C42.0312 9.27344 42.1719 9.72656 42.4531 10.0391C42.7396 10.3516 43.1562 10.5078 43.7031 10.5078C44.2604 10.5078 44.7031 10.3255 45.0312 9.96094C45.3594 9.59635 45.5234 9.11198 45.5234 8.50781V3.71875H47.4688Z"></path>
  </symbol>
  <symbol xmlns="http://www.w3.org/2000/svg" viewBox="0 0 14 14" id="search">
    <path d="M13.2125 12.3516L9.15469 8.29375C9.78438 7.47969 10.125 6.48438 10.125 5.4375C10.125 4.18438 9.63594 3.00937 8.75156 2.12344C7.86719 1.2375 6.68906 0.75 5.4375 0.75C4.18594 0.75 3.00781 1.23906 2.12344 2.12344C1.2375 3.00781 0.75 4.18438 0.75 5.4375C0.75 6.68906 1.23906 7.86719 2.12344 8.75156C3.00781 9.6375 4.18438 10.125 5.4375 10.125C6.48438 10.125 7.47813 9.78438 8.29219 9.15625L12.35 13.2125C12.3619 13.2244 12.376 13.2338 12.3916 13.2403C12.4071 13.2467 12.4238 13.2501 12.4406 13.2501C12.4575 13.2501 12.4741 13.2467 12.4897 13.2403C12.5052 13.2338 12.5194 13.2244 12.5312 13.2125L13.2125 12.5328C13.2244 12.5209 13.2338 12.5068 13.2403 12.4912C13.2467 12.4757 13.2501 12.459 13.2501 12.4422C13.2501 12.4254 13.2467 12.4087 13.2403 12.3931C13.2338 12.3776 13.2244 12.3635 13.2125 12.3516ZM7.9125 7.9125C7.25 8.57344 6.37187 8.9375 5.4375 8.9375C4.50312 8.9375 3.625 8.57344 2.9625 7.9125C2.30156 7.25 1.9375 6.37187 1.9375 5.4375C1.9375 4.50312 2.30156 3.62344 2.9625 2.9625C3.625 2.30156 4.50312 1.9375 5.4375 1.9375C6.37187 1.9375 7.25156 2.3 7.9125 2.9625C8.57344 3.625 8.9375 4.50312 8.9375 5.4375C8.9375 6.37187 8.57344 7.25156 7.9125 7.9125Z"></path>
  </symbol>
  <symbol xmlns="http://www.w3.org/2000/svg" viewBox="0 0 14 12" id="video">
    <path d="M13.25 2.72344L11.25 3.875V1.5C11.25 0.948438 10.8016 0.5 10.25 0.5H1C0.448438 0.5 0 0.948438 0 1.5V10.5C0 11.0516 0.448438 11.5 1 11.5H10.25C10.8016 11.5 11.25 11.0516 11.25 10.5V8.125L13.25 9.27656C13.5828 9.46875 14 9.22812 14 8.84531V3.15625C14 2.77187 13.5828 2.53125 13.25 2.72344ZM10.125 10.375H1.125V1.625H10.125V10.375ZM12.875 7.76562L11.25 6.83125V5.17031L12.875 4.23438V7.76562ZM2.25 3.625H4C4.06875 3.625 4.125 3.56875 4.125 3.5V2.75C4.125 2.68125 4.06875 2.625 4 2.625H2.25C2.18125 2.625 2.125 2.68125 2.125 2.75V3.5C2.125 3.56875 2.18125 3.625 2.25 3.625Z"></path>
  </symbol>
  <symbol xmlns="http://www.w3.org/2000/svg" viewBox="0 0 14 12" id="photo">
    <path d="M13.5 0.5H0.5C0.223437 0.5 0 0.723437 0 1V11C0 11.2766 0.223437 11.5 0.5 11.5H13.5C13.7766 11.5 14 11.2766 14 11V1C14 0.723437 13.7766 0.5 13.5 0.5ZM12.875 10.375H1.125V9.75156L3.28906 7.18437L5.63438 9.96562L9.28281 5.64062L12.875 9.9V10.375ZM12.875 8.34688L9.37813 4.2C9.32812 4.14062 9.2375 4.14062 9.1875 4.2L5.63438 8.4125L3.38438 5.74531C3.33438 5.68594 3.24375 5.68594 3.19375 5.74531L1.125 8.19844V1.625H12.875V8.34688ZM3.75 5.125C3.93057 5.125 4.10937 5.08943 4.27619 5.02033C4.44301 4.95123 4.59459 4.84995 4.72227 4.72227C4.84995 4.59459 4.95123 4.44301 5.02033 4.27619C5.08943 4.10937 5.125 3.93057 5.125 3.75C5.125 3.56943 5.08943 3.39063 5.02033 3.22381C4.95123 3.05699 4.84995 2.90541 4.72227 2.77773C4.59459 2.65005 4.44301 2.54877 4.27619 2.47967C4.10937 2.41057 3.93057 2.375 3.75 2.375C3.38533 2.375 3.03559 2.51987 2.77773 2.77773C2.51987 3.03559 2.375 3.38533 2.375 3.75C2.375 4.11467 2.51987 4.46441 2.77773 4.72227C3.03559 4.98013 3.38533 5.125 3.75 5.125ZM3.75 3.3125C3.99219 3.3125 4.1875 3.50781 4.1875 3.75C4.1875 3.99219 3.99219 4.1875 3.75 4.1875C3.50781 4.1875 3.3125 3.99219 3.3125 3.75C3.3125 3.50781 3.50781 3.3125 3.75 3.3125Z"></path>
  </symbol>
</svg>